<svg width="18" height="32" xmlns="http://www.w3.org/2000/svg">
    <path
        d="M9 10.674c1.395 0 2.584-.498 3.57-1.494.984-.996 1.477-2.225 1.477-3.686 0-1.439-.487-2.65-1.461-3.636C11.612.873 10.416.381 9 .381c-1.417 0-2.612.492-3.586 1.477-.974.985-1.46 2.197-1.46 3.636 0 1.461.492 2.69 1.477 3.686.985.996 2.174 1.494 3.569 1.494zm-.531 20.52v-7.936c0-.133.055-.26.166-.382.11-.122.232-.183.365-.183.133 0 .255.061.365.183.11.122.166.249.166.382v7.935h3.155V19.041h.53l.764 2.922c.222.863.808 1.295 1.76 1.295.51 0 .924-.222 1.245-.664.321-.443.404-.974.25-1.594l-2.126-6.043c-.332-.93-.769-1.594-1.311-1.992-.542-.399-1.256-.598-2.142-.598H6.344c-.886 0-1.6.2-2.142.598-.542.398-.98 1.062-1.311 1.992L.766 21c-.155.62-.072 1.151.249 1.594.32.442.736.664 1.245.664.952 0 1.538-.432 1.76-1.295l.763-2.922h.531v12.152H8.47z"
        fill="#333" fill-rule="nonzero" /></svg>