<svg width="18" height="17" xmlns="http://www.w3.org/2000/svg">
    <path
        d="M13.885 0c.284 0 .515.23.515.515v2.06a.515.515 0 11-1.029 0V.515c0-.285.23-.515.514-.515zm-9.77 0c.283 0 .513.23.513.515v2.06a.515.515 0 11-1.028 0V.515C3.6.23 3.83 0 4.114 0zm-1.03 1.545v1.03a1.03 1.03 0 002.054.07l.004-.07v-1.03h7.714v1.03a1.03 1.03 0 002.055.07l.002-.07v-1.03h2.057c.545 0 .99.423 1.026.96l.003.07V15.97c0 .54-.418.989-.958 1.027L16.97 17H1.029a1.03 1.03 0 01-1.027-.96L0 15.97V2.575c0-.545.423-.991.958-1.027l.07-.003h2.058zm13.886 4.121H1.029V15.97H16.97V5.667zm-5.914 7.47a.772.772 0 11-.002 1.545.772.772 0 01.002-1.545zm-2.058 0a.772.772 0 110 1.545.772.772 0 010-1.545zm-2.057 0a.772.772 0 11-.002 1.545.772.772 0 01.003-1.545zm-2.057 0a.772.772 0 11-.002 1.545.772.772 0 01.003-1.545zm-2.056 0a.772.772 0 11-.002 1.545.772.772 0 01.002-1.545zm12.342-2.06a.773.773 0 110 1.545.773.773 0 010-1.545zm-2.057 0a.772.772 0 110 1.544.772.772 0 010-1.544zm-2.057 0a.772.772 0 11-.003 1.544.772.772 0 01.003-1.544zm-2.057 0a.773.773 0 11-.002 1.545A.773.773 0 019 11.076zm-2.057 0a.772.772 0 11-.002 1.544.772.772 0 01.002-1.544zm-2.057 0a.772.772 0 11-.002 1.544.772.772 0 01.002-1.544zm-2.057 0a.772.772 0 11-.002 1.544.772.772 0 01.002-1.544zm12.342-2.06a.772.772 0 110 1.543.772.772 0 010-1.544zm-2.057 0a.772.772 0 110 1.543.772.772 0 010-1.544zm-2.057 0a.772.772 0 11-.002 1.543.772.772 0 01.002-1.544zM9 9.015a.772.772 0 11-.001 1.544.772.772 0 010-1.545zm-2.057 0a.772.772 0 11-.002 1.543.772.772 0 01.002-1.544zm-2.057 0a.772.772 0 11-.001 1.543.772.772 0 010-1.544zm-2.057 0a.772.772 0 11-.001 1.543.772.772 0 010-1.544zM15.17 6.953a.772.772 0 110 1.545.772.772 0 010-1.545zm-2.057 0a.772.772 0 110 1.544.772.772 0 010-1.544zm-2.057 0a.772.772 0 11-.003 1.545.772.772 0 01.003-1.545zM9 6.954A.773.773 0 118.998 8.5.773.773 0 019 6.954z"
        fill="#333" fill-rule="evenodd" /></svg>